<svg xmlns="http://www.w3.org/2000/svg" data-v-fde0c5aa="" width="98.7796610900067" height="101.2598870300022"><rect id="backgroundrect" width="100%" height="100%" x="0" y="0" fill="none" stroke="none" style="" class="selected"/><!----><defs data-v-fde0c5aa=""><!----></defs><defs data-v-fde0c5aa=""><linearGradient data-v-fde0c5aa="" gradientTransform="rotate(25)" id="a3ec32e1-0e02-4dde-8fb7-5bb409306e2b" x1="0%" y1="0%" x2="100%" y2="0%"><stop data-v-fde0c5aa="" offset="0%" stop-color="#2F190E" stop-opacity="1"/><stop data-v-fde0c5aa="" offset="100%" stop-color="#AA0202" stop-opacity="1"/></linearGradient></defs><defs data-v-fde0c5aa=""><!----></defs><!----><g class="currentLayer" style=""><title>Layer 1</title><g data-v-fde0c5aa="" id="3e1062c9-bf6c-47a1-b89f-7a31b9050eda" fill="url(#a3ec32e1-0e02-4dde-8fb7-5bb409306e2b)" class=""><path d="" id="svg_2"/></g><g data-v-fde0c5aa="" id="0b594813-8572-4385-be25-895e3bd53b31" stroke="none" fill="#000000" class=""><path d="M23.091 54.031a31.399 31.399 0 0 1-1.263-.96c2.912-3.716 7.201-6.492 12.038-7.757.033-.011.115.063.115.063l.889 5.245-.293-5.106c-6.341-1.836-11.797-4.872-15.814-8.519l7.309-7.309c1.931 2.89 4.454 5.768 7.478 8.421.156-.913.329-1.865.517-2.859a26.59 26.59 0 0 1 1.047-3.972c-5.597-2.785-9.362-7.771-11.065-15.985C22.71 8.827 21.673 6.13 13.606 5.107c0 0 .876-1.133 1.094-1.373 4.232-4.639 9.773-4.684 14.324.431 2.959-2.631 6.381-2.304 9.184.342.386.365 1.963 2.295 1.963 2.295-2.138-.54-4.209-1.203-6.32-.029-2.375 1.322-2.678 4.742-1.366 9.942 1.251 4.03 3.538 6.752 6.101 8.588h.878v-.873a14.187 14.187 0 0 1 4.074-2.582c.282-2.968 3.658-5.309 7.781-5.309 4.14 0 7.528 2.364 7.783 5.352a14.178 14.178 0 0 1 4.01 2.569v.843h.844c2.562-1.836 4.85-4.558 6.1-8.587 1.311-5.201 1.011-8.622-1.363-9.944-2.112-1.174-4.186-.51-6.321.029 0 0 1.577-1.93 1.962-2.295 2.807-2.646 6.229-2.973 9.186-.342 5.524-6.208 11.294-4.388 15.42.942-11.771 1.494-8.71 7.506-11.79 15.115-2.057 5.082-5.099 8.743-9.723 11.051.431 1.22.781 2.543 1.052 3.978.186.994.357 1.946.515 2.859 3.024-2.653 5.548-5.531 7.478-8.421l7.309 7.309c-4.019 3.647-9.472 6.683-15.814 8.519l-.293 5.106.889-5.245s.082-.074.114-.063c4.84 1.266 9.126 4.041 12.037 7.757-.404.325-.824.645-1.26.96 3.903 2.052 7.128 5.151 9.162 8.817-.533.304-1.084.597-1.653.877a50.147 50.147 0 0 1 4.652 9.793c-.745.27-1.501.526-2.272.775a49.773 49.773 0 0 0-4.559-9.518 30.05 30.05 0 0 0 1.656-.881c-2.035-3.665-5.261-6.762-9.16-8.816.432-.314.853-.635 1.259-.961-2.354-3.002-5.605-5.391-9.32-6.866l-.231 1.367c3.156 1.485 5.915 3.649 7.979 6.286a29.17 29.17 0 0 1-1.262.96c3.902 2.054 7.128 5.153 9.165 8.816-.533.304-1.087.598-1.658.88a49.53 49.53 0 0 1 4.46 9.246c-7.837 2.312-16.819 3.532-26.405 3.448 1.396-4.016 2.314-7.271 2.895-9.575-1.441 2.333-3.56 4.537-6.645 5.644-.686 1.132-3.221 1.971-6.244 1.973-3.022-.002-5.558-.841-6.247-1.973-3.082-1.106-5.2-3.311-6.642-5.644.581 2.305 1.502 5.56 2.897 9.575-9.591.084-18.57-1.137-26.411-3.448 1.149-3.2 2.651-6.3 4.464-9.246a31.535 31.535 0 0 1-1.658-.88c2.037-3.663 5.26-6.763 9.163-8.816a32.365 32.365 0 0 1-1.262-.96c2.066-2.637 4.823-4.801 7.979-6.286l-.233-1.367c-3.713 1.475-6.963 3.864-9.318 6.866.405.326.827.646 1.262.961-3.902 2.055-7.128 5.151-9.163 8.816.533.305 1.084.6 1.656.881a49.74 49.74 0 0 0-4.558 9.518 72.007 72.007 0 0 1-2.272-.775 49.648 49.648 0 0 1 4.655-9.793 29.01 29.01 0 0 1-1.657-.877c2.035-3.665 5.26-6.765 9.163-8.817zm55.75-17.677a2.007 2.007 0 0 0-4.013 0 2.006 2.006 0 0 0 4.013 0zm-55.137 0a2.004 2.004 0 0 0 4.01 0 2.005 2.005 0 1 0-4.01 0zm40.894 2.937v-1.487h-1.484v1.487h1.484zm0-3.497v-1.487h-1.484v1.487h1.484zm-8.378 6.991V41.3h-1.487v1.485h1.487zm0-3.494v-1.487h-1.487v1.487h1.487zm0-3.497v-1.487h-1.487v1.487h1.487zm0-7.209v-1.272h-1.282l-.205.077v1.41h.324a23.6 23.6 0 0 0 1.163-.215zm-8.377 14.2V41.3h-1.488v1.485h1.488zm0-3.494v-1.487h-1.488v1.487h1.488zm0-3.497v-1.487h-1.488v1.487h1.488zm0-6.994v-1.434l-.141-.054h-1.347v1.279c.395.083.77.15 1.131.208h.357v.001zm-8.378 13.985V41.3h-1.487v1.485h1.487zm0-3.494v-1.487h-1.487v1.487h1.487zm0-3.497v-1.487h-1.487v1.487h1.487zm25.133 6.991V41.3h-1.484v1.485h1.484zM36.771 46.11c-.015.458-.217 6.267 5.742 7.116 5.847.834 7.25-2.648 7.833-3.85.306-.724.926-.689.926-.689s.619-.034.924.689c.581 1.201 1.987 4.684 7.833 3.85 6.054-.861 5.754-6.837 5.734-7.132-1.882.439-3.935.752-6.021.967-1.938.764-3.751 1.782-5.153 2.84l.619-2.025c.28-.185.578-.365.889-.537a83.663 83.663 0 0 1-4.824.11 84.77 84.77 0 0 1-4.857-.11c.31.171.608.351.888.537l.622 2.025c-1.403-1.058-3.215-2.076-5.155-2.841-2.073-.211-4.115-.52-5.986-.946l-.014-.004zm6.361 15.067c5.935-1.196 8.139-.359 8.139-.359s2.201-.837 8.136.359c3.895.787 5.593-1.77 5.593-1.77s-2.086 1.532-5.554.647c3.087.589 4.939-1.423 4.939-1.423s-1.851 1.008-5.784-.198c-3.157-.971-5.223.307-6.188 1.182-.77.565-1.142 1.202-1.142 1.202s-.373-.637-1.141-1.202c-.972-.875-3.032-2.152-6.191-1.184-3.934 1.208-5.784.2-5.784.2s1.852 2.012 4.94 1.421c-3.471.887-5.555-.646-5.555-.646s1.701 2.558 5.592 1.771zm-.884 3.624c0 1.313 1.012 2.396 2.31 2.537.419.05 1.19.092 2.159-.461 1.639-.936 4.519-.914 4.555-.914s2.917-.021 4.559.914c.964.553 1.734.511 2.155.461 1.3-.141 2.31-1.224 2.31-2.537 0-1.359-1.084-2.473-2.451-2.549-1.476-.147-2.562.352-4.353.716 0 0-.983.208-2.22.218-1.235-.01-2.218-.218-2.218-.218-1.794-.364-2.877-.863-4.353-.716-1.368.076-2.453 1.189-2.453 2.549zm-8.915-58.96c1.007-.561 2.457-.891 3.9-.78-1.082-.948-3.208-2.339-5.544-1.303-.951.422-1.787.935-2.433 1.688l-.274.322-.271-.328c-6.11-7.454-11.564-2.746-13.084-1.14 4.92.79 7.054 3.113 8.208 6.026.295.743.526 1.523.724 2.327.198.792.365 1.605.536 2.423.336 1.631.678 3.246 1.287 4.746 3.641 8.992 10.443 13.383 24.891 13.383 14.447 0 21.249-4.391 24.889-13.383.609-1.5.95-3.115 1.29-4.746.169-.818.338-1.631.531-2.423a18.76 18.76 0 0 1 .727-2.327C79.865 7.413 82 5.09 86.921 4.3 85.4 2.694 79.943-2.014 73.834 5.44l-.27.328-.274-.322c-.646-.752-1.486-1.265-2.437-1.688-2.334-1.036-4.462.355-5.543 1.303 1.442-.111 2.895.219 3.901.78 3.158 1.758 3.162 6.065 1.873 11.162-2.133 6.894-7.111 10.196-11.525 11.758a25.439 25.439 0 0 1-6.851 1.372v-3.581c2.956-.418 5.182-2.227 5.182-4.395 0-2.477-2.903-4.486-6.484-4.486-3.583 0-6.488 2.009-6.488 4.486 0 2.102 2.091 3.866 4.913 4.353v3.623a25.437 25.437 0 0 1-6.843-1.372c-4.417-1.562-9.395-4.864-11.527-11.758-1.289-5.096-1.286-9.404 1.872-11.162zm7.135 43.085l7.297 1.986c-.327.23-2.109 1.38-4.188.545-1.857-.746-2.808-2.051-3.109-2.531zm21.573 0c-.3.479-1.252 1.785-3.107 2.531-2.079.835-3.861-.314-4.192-.545l7.299-1.986zm-9.855 31.961c-.406.659-1.488.641-1.856-.052-.249.468-.823.629-1.291.48.011 5.715-.729 12.106-2.582 17.345-.474 1.341-2.481.63-2.01-.709 1.919-5.428 2.747-13.125 2.406-18.942-.035-.587.562-1.033 1.471-1.336.051-1.155 1.56-1.312 2.005-.471.368-.691 1.45-.709 1.856-.052.439-.722 1.701-.631 1.939.271 1.221.25 2.099.714 2.093 1.405 0 .052-.041 9.022 2.854 14.23.691 1.24-1.172 2.276-1.861 1.035-2.078-3.733-2.877-9.099-3.078-13.507-.215.933-1.5 1.033-1.946.303z" id="svg_3"/></g></g></svg>