<svg data-v-423bf9ae="" xmlns="http://www.w3.org/2000/svg" viewBox="0 0 298.5111643489875 183" class="iconAbove"><!----><!----><defs data-v-423bf9ae=""><linearGradient data-v-423bf9ae="" gradientTransform="rotate(25)" id="70e0e679-a770-4b8c-925f-450596f2c35d" x1="0%" y1="0%" x2="100%" y2="0%"><stop data-v-423bf9ae="" offset="0%" style="stop-color: rgb(47, 25, 14); stop-opacity: 1;"></stop><stop data-v-423bf9ae="" offset="100%" style="stop-color: rgb(170, 2, 2); stop-opacity: 1;"></stop></linearGradient></defs><g data-v-423bf9ae="" id="9d7cfae1-5cc6-48cb-b097-abf148a38095" fill="url(#70e0e679-a770-4b8c-925f-450596f2c35d)" transform="matrix(4.966871763892457,0,0,4.966871763892457,-5.562894691405347,103.61212235336046)"><path d="M8.51 4.79C7.69 4.13 6.55 3.78 5.22 3.78L1.40 3.78C1.25 3.78 1.12 3.91 1.12 4.06L1.12 5.18L3.28 8.69L1.12 8.69L1.12 15.53C1.12 15.68 1.25 15.81 1.40 15.81L3.04 15.81C3.19 15.81 3.30 15.68 3.30 15.53L3.30 10.89L5.25 10.89C6.57 10.88 7.70 10.54 8.51 9.88C9.34 9.23 9.80 8.30 9.80 7.34C9.80 6.36 9.34 5.43 8.51 4.79ZM4.17 5.96L5.22 5.96C6.79 5.96 7.62 6.65 7.62 7.34C7.62 7.92 7 8.51 5.81 8.67ZM18.94 15.29C19.31 15.12 19.66 14.92 19.99 14.69L19.99 14.67L20.01 14.67C20.01 14.66 20.01 14.66 20.02 14.66C20.13 14.56 20.15 14.38 20.03 14.27L18.98 13.02C18.90 12.91 18.73 12.88 18.62 12.95C18.62 12.96 18.61 12.96 18.61 12.96C17.01 14.04 14.81 13.76 13.54 12.26C12.17 10.64 12.36 8.22 13.97 6.85C15.25 5.77 17.04 5.66 18.40 6.45C18.51 6.51 18.62 6.50 18.70 6.43L20.02 5.32C20.13 5.22 20.15 5.04 20.03 4.91L20.01 4.89L19.96 4.86C17.77 3.29 14.70 3.35 12.56 5.17C10.01 7.32 9.70 11.14 11.86 13.68C13.64 15.78 16.55 16.35 18.94 15.29ZM29.86 15.53C29.86 15.68 29.74 15.81 29.60 15.81L27.94 15.81C27.80 15.81 27.68 15.68 27.68 15.53L27.68 10.88L23.84 10.88L23.84 15.53C23.84 15.68 23.73 15.81 23.58 15.81L21.94 15.81C21.78 15.81 21.66 15.68 21.66 15.53L21.66 4.10C21.66 3.92 21.78 3.77 21.94 3.77L23.58 3.77C23.73 3.77 23.84 3.92 23.84 4.10L23.84 8.69L27.68 8.69L27.68 4.10C27.68 3.92 27.80 3.77 27.94 3.77L29.60 3.77C29.74 3.77 29.86 3.92 29.86 4.10ZM39.96 11.16C39.96 11.00 39.83 10.89 39.68 10.89L38.75 10.89L37.04 4.05L37.03 3.98C36.99 3.88 36.89 3.81 36.78 3.81L34.94 3.81C34.83 3.81 34.73 3.88 34.69 3.98L34.68 4.06L31.84 15.41C31.84 15.43 31.84 15.44 31.82 15.44L31.82 15.50C31.82 15.67 31.95 15.79 32.09 15.79L33.78 15.79C33.89 15.79 34.01 15.71 34.03 15.60C34.03 15.58 34.05 15.57 34.05 15.57L34.66 13.06L37.06 13.06L37.67 15.55L37.69 15.60C37.73 15.71 37.83 15.79 37.94 15.79L39.63 15.79C39.79 15.79 39.90 15.67 39.90 15.50L39.90 15.47L39.89 15.40L39.30 13.06L39.68 13.06C39.83 13.06 39.96 12.95 39.96 12.80ZM35.21 10.89L35.87 8.30L36.51 10.89ZM49.91 15.37L47.68 11.42L47.38 10.89L47.31 10.77C49.34 10.32 50.39 8.82 50.39 7.35C50.39 6.38 49.94 5.46 49.17 4.82C48.38 4.14 47.28 3.79 46.00 3.79L41.92 3.79C41.76 3.79 41.64 3.92 41.64 4.06L41.64 5.17L41.78 5.42L41.78 5.43L43.64 8.71L41.64 8.71L41.64 15.54C41.64 15.69 41.76 15.82 41.92 15.82L43.55 15.82C43.69 15.82 43.82 15.69 43.82 15.54L43.82 10.89L44.87 10.89L45.16 11.42L47.56 15.65L47.59 15.69C47.63 15.76 47.71 15.82 47.81 15.82L49.69 15.82C49.84 15.82 49.95 15.69 49.95 15.53C49.95 15.48 49.95 15.44 49.92 15.40ZM45.85 8.19L44.60 5.98L46.00 5.98C47.52 5.98 48.19 6.69 48.19 7.35C48.19 7.91 47.68 8.53 46.55 8.68C46.42 8.69 46.28 8.71 46.14 8.71ZM55.20 15.81C56.56 15.82 57.92 15.37 59.04 14.45C61.59 12.35 61.96 8.55 59.85 5.99C58.67 4.55 56.94 3.79 55.20 3.79L52.21 3.79C52.05 3.79 51.93 3.92 51.93 4.06L51.93 15.47C51.93 15.67 52.05 15.81 52.21 15.81ZM58.17 7.38C59.51 9.00 59.28 11.42 57.64 12.75C56.94 13.34 56.07 13.64 55.20 13.62L54.11 13.62L54.11 5.98L55.20 5.98C56.31 5.98 57.41 6.45 58.17 7.38Z"></path></g><!----><g data-v-423bf9ae="" id="fd54b0bd-4747-4497-b6ac-91d90c782971" transform="matrix(1.1014537387424046,0,0,1.1014537387424046,93.45570850933734,0.38090508356154373)" stroke="none" fill="#FFFFFF"><path d="M23.091 54.031a31.399 31.399 0 0 1-1.263-.96c2.912-3.716 7.201-6.492 12.038-7.757.033-.011.115.063.115.063l.889 5.245-.293-5.106c-6.341-1.836-11.797-4.872-15.814-8.519l7.309-7.309c1.931 2.89 4.454 5.768 7.478 8.421.156-.913.329-1.865.517-2.859a26.59 26.59 0 0 1 1.047-3.972c-5.597-2.785-9.362-7.771-11.065-15.985C22.71 8.827 21.673 6.13 13.606 5.107c0 0 .876-1.133 1.094-1.373 4.232-4.639 9.773-4.684 14.324.431 2.959-2.631 6.381-2.304 9.184.342.386.365 1.963 2.295 1.963 2.295-2.138-.54-4.209-1.203-6.32-.029-2.375 1.322-2.678 4.742-1.366 9.942 1.251 4.03 3.538 6.752 6.101 8.588h.878v-.873a14.187 14.187 0 0 1 4.074-2.582c.282-2.968 3.658-5.309 7.781-5.309 4.14 0 7.528 2.364 7.783 5.352a14.178 14.178 0 0 1 4.01 2.569v.843h.844c2.562-1.836 4.85-4.558 6.1-8.587 1.311-5.201 1.011-8.622-1.363-9.944-2.112-1.174-4.186-.51-6.321.029 0 0 1.577-1.93 1.962-2.295 2.807-2.646 6.229-2.973 9.186-.342 5.524-6.208 11.294-4.388 15.42.942-11.771 1.494-8.71 7.506-11.79 15.115-2.057 5.082-5.099 8.743-9.723 11.051.431 1.22.781 2.543 1.052 3.978.186.994.357 1.946.515 2.859 3.024-2.653 5.548-5.531 7.478-8.421l7.309 7.309c-4.019 3.647-9.472 6.683-15.814 8.519l-.293 5.106.889-5.245s.082-.074.114-.063c4.84 1.266 9.126 4.041 12.037 7.757-.404.325-.824.645-1.26.96 3.903 2.052 7.128 5.151 9.162 8.817-.533.304-1.084.597-1.653.877a50.147 50.147 0 0 1 4.652 9.793c-.745.27-1.501.526-2.272.775a49.773 49.773 0 0 0-4.559-9.518 30.05 30.05 0 0 0 1.656-.881c-2.035-3.665-5.261-6.762-9.16-8.816.432-.314.853-.635 1.259-.961-2.354-3.002-5.605-5.391-9.32-6.866l-.231 1.367c3.156 1.485 5.915 3.649 7.979 6.286a29.17 29.17 0 0 1-1.262.96c3.902 2.054 7.128 5.153 9.165 8.816-.533.304-1.087.598-1.658.88a49.53 49.53 0 0 1 4.46 9.246c-7.837 2.312-16.819 3.532-26.405 3.448 1.396-4.016 2.314-7.271 2.895-9.575-1.441 2.333-3.56 4.537-6.645 5.644-.686 1.132-3.221 1.971-6.244 1.973-3.022-.002-5.558-.841-6.247-1.973-3.082-1.106-5.2-3.311-6.642-5.644.581 2.305 1.502 5.56 2.897 9.575-9.591.084-18.57-1.137-26.411-3.448 1.149-3.2 2.651-6.3 4.464-9.246a31.535 31.535 0 0 1-1.658-.88c2.037-3.663 5.26-6.763 9.163-8.816a32.365 32.365 0 0 1-1.262-.96c2.066-2.637 4.823-4.801 7.979-6.286l-.233-1.367c-3.713 1.475-6.963 3.864-9.318 6.866.405.326.827.646 1.262.961-3.902 2.055-7.128 5.151-9.163 8.816.533.305 1.084.6 1.656.881a49.74 49.74 0 0 0-4.558 9.518 72.007 72.007 0 0 1-2.272-.775 49.648 49.648 0 0 1 4.655-9.793 29.01 29.01 0 0 1-1.657-.877c2.035-3.665 5.26-6.765 9.163-8.817zm55.75-17.677a2.007 2.007 0 0 0-4.013 0 2.006 2.006 0 0 0 4.013 0zm-55.137 0a2.004 2.004 0 0 0 4.01 0 2.005 2.005 0 1 0-4.01 0zm40.894 2.937v-1.487h-1.484v1.487h1.484zm0-3.497v-1.487h-1.484v1.487h1.484zm-8.378 6.991V41.3h-1.487v1.485h1.487zm0-3.494v-1.487h-1.487v1.487h1.487zm0-3.497v-1.487h-1.487v1.487h1.487zm0-7.209v-1.272h-1.282l-.205.077v1.41h.324a23.6 23.6 0 0 0 1.163-.215zm-8.377 14.2V41.3h-1.488v1.485h1.488zm0-3.494v-1.487h-1.488v1.487h1.488zm0-3.497v-1.487h-1.488v1.487h1.488zm0-6.994v-1.434l-.141-.054h-1.347v1.279c.395.083.77.15 1.131.208h.357v.001zm-8.378 13.985V41.3h-1.487v1.485h1.487zm0-3.494v-1.487h-1.487v1.487h1.487zm0-3.497v-1.487h-1.487v1.487h1.487zm25.133 6.991V41.3h-1.484v1.485h1.484zM36.771 46.11c-.015.458-.217 6.267 5.742 7.116 5.847.834 7.25-2.648 7.833-3.85.306-.724.926-.689.926-.689s.619-.034.924.689c.581 1.201 1.987 4.684 7.833 3.85 6.054-.861 5.754-6.837 5.734-7.132-1.882.439-3.935.752-6.021.967-1.938.764-3.751 1.782-5.153 2.84l.619-2.025c.28-.185.578-.365.889-.537a83.663 83.663 0 0 1-4.824.11 84.77 84.77 0 0 1-4.857-.11c.31.171.608.351.888.537l.622 2.025c-1.403-1.058-3.215-2.076-5.155-2.841-2.073-.211-4.115-.52-5.986-.946l-.014-.004zm6.361 15.067c5.935-1.196 8.139-.359 8.139-.359s2.201-.837 8.136.359c3.895.787 5.593-1.77 5.593-1.77s-2.086 1.532-5.554.647c3.087.589 4.939-1.423 4.939-1.423s-1.851 1.008-5.784-.198c-3.157-.971-5.223.307-6.188 1.182-.77.565-1.142 1.202-1.142 1.202s-.373-.637-1.141-1.202c-.972-.875-3.032-2.152-6.191-1.184-3.934 1.208-5.784.2-5.784.2s1.852 2.012 4.94 1.421c-3.471.887-5.555-.646-5.555-.646s1.701 2.558 5.592 1.771zm-.884 3.624c0 1.313 1.012 2.396 2.31 2.537.419.05 1.19.092 2.159-.461 1.639-.936 4.519-.914 4.555-.914s2.917-.021 4.559.914c.964.553 1.734.511 2.155.461 1.3-.141 2.31-1.224 2.31-2.537 0-1.359-1.084-2.473-2.451-2.549-1.476-.147-2.562.352-4.353.716 0 0-.983.208-2.22.218-1.235-.01-2.218-.218-2.218-.218-1.794-.364-2.877-.863-4.353-.716-1.368.076-2.453 1.189-2.453 2.549zm-8.915-58.96c1.007-.561 2.457-.891 3.9-.78-1.082-.948-3.208-2.339-5.544-1.303-.951.422-1.787.935-2.433 1.688l-.274.322-.271-.328c-6.11-7.454-11.564-2.746-13.084-1.14 4.92.79 7.054 3.113 8.208 6.026.295.743.526 1.523.724 2.327.198.792.365 1.605.536 2.423.336 1.631.678 3.246 1.287 4.746 3.641 8.992 10.443 13.383 24.891 13.383 14.447 0 21.249-4.391 24.889-13.383.609-1.5.95-3.115 1.29-4.746.169-.818.338-1.631.531-2.423a18.76 18.76 0 0 1 .727-2.327C79.865 7.413 82 5.09 86.921 4.3 85.4 2.694 79.943-2.014 73.834 5.44l-.27.328-.274-.322c-.646-.752-1.486-1.265-2.437-1.688-2.334-1.036-4.462.355-5.543 1.303 1.442-.111 2.895.219 3.901.78 3.158 1.758 3.162 6.065 1.873 11.162-2.133 6.894-7.111 10.196-11.525 11.758a25.439 25.439 0 0 1-6.851 1.372v-3.581c2.956-.418 5.182-2.227 5.182-4.395 0-2.477-2.903-4.486-6.484-4.486-3.583 0-6.488 2.009-6.488 4.486 0 2.102 2.091 3.866 4.913 4.353v3.623a25.437 25.437 0 0 1-6.843-1.372c-4.417-1.562-9.395-4.864-11.527-11.758-1.289-5.096-1.286-9.404 1.872-11.162zm7.135 43.085l7.297 1.986c-.327.23-2.109 1.38-4.188.545-1.857-.746-2.808-2.051-3.109-2.531zm21.573 0c-.3.479-1.252 1.785-3.107 2.531-2.079.835-3.861-.314-4.192-.545l7.299-1.986zm-9.855 31.961c-.406.659-1.488.641-1.856-.052-.249.468-.823.629-1.291.48.011 5.715-.729 12.106-2.582 17.345-.474 1.341-2.481.63-2.01-.709 1.919-5.428 2.747-13.125 2.406-18.942-.035-.587.562-1.033 1.471-1.336.051-1.155 1.56-1.312 2.005-.471.368-.691 1.45-.709 1.856-.052.439-.722 1.701-.631 1.939.271 1.221.25 2.099.714 2.093 1.405 0 .052-.041 9.022 2.854 14.23.691 1.24-1.172 2.276-1.861 1.035-2.078-3.733-2.877-9.099-3.078-13.507-.215.933-1.5 1.033-1.946.303z"></path></g><!----></svg>